<?xml version="1.0" standalone="no"?><!-- Generator: Gravit.io --><svg xmlns="http://www.w3.org/2000/svg" xmlns:xlink="http://www.w3.org/1999/xlink" style="isolation:isolate" viewBox="0 0 200 200" width="200" height="200"><defs><clipPath id="_clipPath_xRqK25RjBfwq9Dt03zPqmzhX2CA6LQqN"><rect width="200" height="200"/></clipPath></defs><g clip-path="url(#_clipPath_xRqK25RjBfwq9Dt03zPqmzhX2CA6LQqN)"><g id="Group"><rect x="58.623" y="71.5" width="82.755" height="106.5" transform="matrix(1,0,0,1,0,0)" fill="rgb(47,66,57)"/><g id="Group"><rect x="60.691" y="139.343" width="15.226" height="8.399" transform="matrix(0.972,-0.235,0.235,0.972,-31.869,20.111)" fill="rgb(62,79,72)"/><path d="M 14.979 142.775 L 49.505 134.413 C 56.638 132.685 63.832 137.074 65.559 144.207 L 65.559 144.207 C 67.287 151.341 62.898 158.535 55.765 160.262 L 21.24 168.624 C 14.106 170.352 6.912 165.963 5.185 158.83 L 5.185 158.83 C 3.457 151.696 7.846 144.502 14.979 142.775 Z" style="stroke:none;fill:#485B53;stroke-miterlimit:10;"/></g><g id="Group"><rect x="124.083" y="139.343" width="15.226" height="8.399" transform="matrix(0.972,0.235,-0.235,0.972,37.488,-26.966)" fill="rgb(62,79,72)"/><path d="M 185.021 142.775 L 150.495 134.413 C 143.362 132.685 136.168 137.074 134.441 144.207 L 134.441 144.207 C 132.713 151.341 137.102 158.535 144.235 160.262 L 178.76 168.624 C 185.894 170.352 193.088 165.963 194.815 158.83 L 194.815 158.83 C 196.543 151.696 192.154 144.502 185.021 142.775 Z" style="stroke:none;fill:#485B53;stroke-miterlimit:10;"/></g><path d=" M 40.75 81.25 C 40.75 48.549 67.299 22 100 22 C 132.701 22 159.25 48.549 159.25 81.25 C 159.25 113.951 132.701 140.5 100 140.5 C 67.299 140.5 40.75 113.951 40.75 81.25 Z " fill="rgb(91,113,103)"/><rect x="72.25" y="71.5" width="55.5" height="85.5" transform="matrix(1,0,0,1,0,0)" fill="rgb(91,113,103)"/><rect x="72.25" y="160" width="55.5" height="18" transform="matrix(1,0,0,1,0,0)" fill="rgb(91,113,103)"/><path d=" M 59.811 81.25 C 59.811 75.041 64.852 70 71.061 70 C 77.27 70 82.311 75.041 82.311 81.25 C 82.311 87.459 77.27 92.5 71.061 92.5 C 64.852 92.5 59.811 87.459 59.811 81.25 Z " fill="rgb(47,66,57)"/><path d=" M 67.311 81.25 C 67.311 79.18 68.992 77.5 71.061 77.5 C 73.131 77.5 74.811 79.18 74.811 81.25 C 74.811 83.32 73.131 85 71.061 85 C 68.992 85 67.311 83.32 67.311 81.25 Z " fill="rgb(252,253,253)"/><path d=" M 117.689 81.25 C 117.689 75.041 122.73 70 128.939 70 C 135.148 70 140.189 75.041 140.189 81.25 C 140.189 87.459 135.148 92.5 128.939 92.5 C 122.73 92.5 117.689 87.459 117.689 81.25 Z " fill="rgb(47,66,57)"/><path d=" M 125.189 81.25 C 125.189 79.18 126.869 77.5 128.939 77.5 C 131.008 77.5 132.689 79.18 132.689 81.25 C 132.689 83.32 131.008 85 128.939 85 C 126.869 85 125.189 83.32 125.189 81.25 Z " fill="rgb(252,253,253)"/></g></g></svg>